<mxfile host="app.diagrams.net" modified="2024-01-25T05:42:00.720Z" agent="Mozilla/5.0 (Windows NT 10.0; Win64; x64) AppleWebKit/537.36 (KHTML, like Gecko) Chrome/120.0.0.0 Safari/537.36" etag="F4FYnQ67fYt95d27beYd" version="23.0.1" type="gitlab">
  <diagram name="Page-1" id="03018318-947c-dd8e-b7a3-06fadd420f32">
    <mxGraphModel dx="1793" dy="1031" grid="1" gridSize="10" guides="1" tooltips="1" connect="1" arrows="1" fold="1" page="1" pageScale="1" pageWidth="1100" pageHeight="850" background="none" math="0" shadow="0">
      <root>
        <mxCell id="0" />
        <mxCell id="1" parent="0" />
        <mxCell id="677b7b8949515195-9" value="" style="line;strokeWidth=1;html=1;rounded=0;shadow=0;labelBackgroundColor=none;fillColor=none;fontFamily=Verdana;fontSize=14;fontColor=#000000;align=center;comic=1;" parent="1" vertex="1">
          <mxGeometry x="20" y="140" width="1060" height="10" as="geometry" />
        </mxCell>
        <mxCell id="677b7b8949515195-10" value="" style="whiteSpace=wrap;html=1;rounded=0;shadow=0;labelBackgroundColor=none;strokeWidth=1;fillColor=none;fontFamily=Verdana;fontSize=12;align=center;comic=1;" parent="1" vertex="1">
          <mxGeometry x="30" y="160" width="1040" height="50" as="geometry" />
        </mxCell>
        <mxCell id="677b7b8949515195-11" value="Home" style="text;html=1;points=[];align=left;verticalAlign=top;spacingTop=-4;fontSize=14;fontFamily=Verdana" parent="1" vertex="1">
          <mxGeometry x="384" y="175" width="60" height="20" as="geometry" />
        </mxCell>
        <mxCell id="677b7b8949515195-12" value="Prediction" style="text;html=1;points=[];align=left;verticalAlign=top;spacingTop=-4;fontSize=14;fontFamily=Verdana" parent="1" vertex="1">
          <mxGeometry x="531" y="175" width="60" height="20" as="geometry" />
        </mxCell>
        <mxCell id="677b7b8949515195-13" value="History" style="text;html=1;points=[];align=left;verticalAlign=top;spacingTop=-4;fontSize=14;fontFamily=Verdana" parent="1" vertex="1">
          <mxGeometry x="677" y="175" width="60" height="20" as="geometry" />
        </mxCell>
        <mxCell id="ryHcr_mvnEQ2C2UxyVQ8-1" value="LOGO" style="html=1;whiteSpace=wrap;" parent="1" vertex="1">
          <mxGeometry x="40" y="60" width="110" height="50" as="geometry" />
        </mxCell>
        <mxCell id="ryHcr_mvnEQ2C2UxyVQ8-5" value="&lt;font size=&quot;1&quot; style=&quot;&quot;&gt;&lt;b style=&quot;font-size: 17px;&quot;&gt;Logout&lt;/b&gt;&lt;/font&gt;" style="rounded=1;whiteSpace=wrap;html=1;fillColor=#f8cecc;strokeColor=#b85450;" parent="1" vertex="1">
          <mxGeometry x="960" y="65" width="90" height="40" as="geometry" />
        </mxCell>
        <mxCell id="ryHcr_mvnEQ2C2UxyVQ8-6" value="&lt;span style=&quot;font-size: 16px;&quot;&gt;Prediction: Carrot&lt;/span&gt;" style="rounded=1;whiteSpace=wrap;html=1;fillColor=#d5e8d4;strokeColor=#82b366;" parent="1" vertex="1">
          <mxGeometry x="50" y="230" width="1010" height="60" as="geometry" />
        </mxCell>
        <mxCell id="ryHcr_mvnEQ2C2UxyVQ8-57" value="Submit" style="strokeWidth=1;shadow=0;dashed=0;align=center;html=1;shape=mxgraph.mockup.buttons.button;strokeColor=#666666;fontColor=#ffffff;mainText=;buttonStyle=round;fontSize=17;fontStyle=1;fillColor=#008cff;whiteSpace=wrap;" parent="1" vertex="1">
          <mxGeometry x="587" y="940" width="110" height="50" as="geometry" />
        </mxCell>
        <mxCell id="ryHcr_mvnEQ2C2UxyVQ8-58" value="Upload" style="strokeWidth=1;shadow=0;dashed=0;align=center;html=1;shape=mxgraph.mockup.buttons.button;strokeColor=#666666;fontColor=#333333;mainText=;buttonStyle=round;fontSize=17;fontStyle=1;fillColor=#f5f5f5;whiteSpace=wrap;" parent="1" vertex="1">
          <mxGeometry x="337" y="942" width="110" height="50" as="geometry" />
        </mxCell>
        <mxCell id="-YV2nkTwNU1-1JYnnlXS-1" value="" style="strokeColor=#999999;verticalLabelPosition=bottom;shadow=0;dashed=0;verticalAlign=top;strokeWidth=2;html=1;shape=mxgraph.mockup.misc.printIcon;" vertex="1" parent="1">
          <mxGeometry x="467" y="941" width="50" height="50" as="geometry" />
        </mxCell>
        <mxCell id="-YV2nkTwNU1-1JYnnlXS-3" value="" style="verticalLabelPosition=bottom;verticalAlign=top;html=1;shape=mxgraph.basic.rect;fillColor2=none;strokeWidth=1;size=20;indent=5;" vertex="1" parent="1">
          <mxGeometry x="222" y="425" width="590" height="420" as="geometry" />
        </mxCell>
        <mxCell id="-YV2nkTwNU1-1JYnnlXS-5" value="Large" style="strokeWidth=1;shadow=0;dashed=0;align=center;html=1;shape=mxgraph.mockup.forms.comboBox;strokeColor=#999999;fillColor=#ddeeff;align=left;fillColor2=#aaddff;mainText=;fontColor=#666666;fontSize=17;spacingLeft=3;" vertex="1" parent="1">
          <mxGeometry x="867" y="520" width="150" height="30" as="geometry" />
        </mxCell>
        <mxCell id="-YV2nkTwNU1-1JYnnlXS-6" value="&lt;font style=&quot;font-size: 18px;&quot;&gt;Model Selection:&lt;/font&gt;" style="text;html=1;points=[];align=left;verticalAlign=top;spacingTop=-4;fontSize=14;fontFamily=Verdana" vertex="1" parent="1">
          <mxGeometry x="860" y="480" width="60" height="20" as="geometry" />
        </mxCell>
      </root>
    </mxGraphModel>
  </diagram>
</mxfile>
